<svg xmlns="http://www.w3.org/2000/svg" xmlns:xlink="http://www.w3.org/1999/xlink" width="500" zoomAndPan="magnify" viewBox="0 0 375 374.999991" height="500" preserveAspectRatio="xMidYMid meet" version="1.0"><defs><clipPath id="e25ac41860"><path d="M 187.5 0 C 83.945312 0 0 83.945312 0 187.5 C 0 291.054688 83.945312 375 187.5 375 C 291.054688 375 375 291.054688 375 187.5 C 375 83.945312 291.054688 0 187.5 0 Z M 187.5 0 " clip-rule="nonzero"/></clipPath><clipPath id="eebe857a84"><path d="M 103 125.53125 L 272 125.53125 L 272 198 L 103 198 Z M 103 125.53125 " clip-rule="nonzero"/></clipPath><clipPath id="3117bd3508"><path d="M 97.851562 139 L 277.101562 139 L 277.101562 249.28125 L 97.851562 249.28125 Z M 97.851562 139 " clip-rule="nonzero"/></clipPath></defs><g clip-path="url(#e25ac41860)"><rect x="-37.5" width="450" fill="#ff3131" y="-37.499999" height="449.999989" fill-opacity="1"/></g><g clip-path="url(#eebe857a84)"><path fill="#f8f8f8" d="M 187.539062 197.648438 C 195.007812 197.101562 235.289062 163.949219 271.035156 131.289062 C 267.40625 127.761719 262.460938 125.582031 256.996094 125.582031 L 118.015625 125.582031 C 112.402344 125.582031 107.324219 127.878906 103.667969 131.585938 C 139.515625 164.070312 180 197.121094 187.539062 197.648438 " fill-opacity="1" fill-rule="nonzero"/></g><g clip-path="url(#3117bd3508)"><path fill="#f8f8f8" d="M 240.257812 170.679688 C 197.433594 206.925781 190.476562 206.925781 187.503906 206.925781 C 184.539062 206.925781 177.589844 206.925781 134.753906 170.976562 C 119.777344 158.40625 105.527344 145.722656 98.785156 139.664062 C 98.175781 141.585938 97.839844 143.632812 97.839844 145.757812 L 97.839844 229.300781 C 97.839844 240.433594 106.867188 249.460938 118 249.460938 L 256.980469 249.460938 C 268.125 249.460938 277.15625 240.429688 277.15625 229.285156 L 277.15625 145.742188 C 277.15625 143.464844 276.761719 141.285156 276.066406 139.242188 C 269.265625 145.40625 255.117188 158.097656 240.257812 170.679688 " fill-opacity="1" fill-rule="nonzero"/></g></svg>