<svg xmlns="http://www.w3.org/2000/svg" xmlns:xlink="http://www.w3.org/1999/xlink" width="500" zoomAndPan="magnify" viewBox="0 0 375 374.999991" height="500" preserveAspectRatio="xMidYMid meet" version="1.0"><defs><clipPath id="fb13b3bfe9"><path d="M 187.5 0 C 83.945312 0 0 83.945312 0 187.5 C 0 291.054688 83.945312 375 187.5 375 C 291.054688 375 375 291.054688 375 187.5 C 375 83.945312 291.054688 0 187.5 0 Z M 187.5 0 " clip-rule="nonzero"/></clipPath><clipPath id="534ccc0330"><path d="M 128.089844 102.625 L 246.589844 102.625 L 246.589844 272.125 L 128.089844 272.125 Z M 128.089844 102.625 " clip-rule="nonzero"/></clipPath></defs><g clip-path="url(#fb13b3bfe9)"><rect x="-37.5" width="450" fill="#ff3131" y="-37.499999" height="449.999989" fill-opacity="1"/></g><g clip-path="url(#534ccc0330)"><path fill="#f8f8f8" d="M 187.496094 102.628906 C 154.695312 102.628906 128.089844 129.238281 128.089844 162.039062 C 128.089844 206.59375 187.496094 272.367188 187.496094 272.367188 C 187.496094 272.367188 246.90625 206.59375 246.90625 162.039062 C 246.90625 129.238281 220.296875 102.628906 187.496094 102.628906 Z M 187.496094 183.253906 C 175.785156 183.253906 166.277344 173.75 166.277344 162.039062 C 166.277344 150.328125 175.785156 140.820312 187.496094 140.820312 C 199.207031 140.820312 208.714844 150.328125 208.714844 162.039062 C 208.714844 173.75 199.207031 183.253906 187.496094 183.253906 Z M 187.496094 183.253906 " fill-opacity="1" fill-rule="nonzero"/></g></svg>