<?xml version="1.0" encoding="UTF-8"?>
<svg id="Layer_1" data-name="Layer 1" xmlns="http://www.w3.org/2000/svg" viewBox="0 0 4235.29 4311.53">
  <defs>
    <style>
      .cls-1 {
        fill: #fff;
      }
    </style>
  </defs>
  <path class="cls-1" d="M1104.38,1172.44c7.42,9.64,9.21,21.38,15.04,31.97,13.54,24.63,32.61,51.83,48.02,75.98,145.34,227.81,313.56,441.73,470.64,661.36-.48-24.25-7.45-48.91-10.76-73.24-12.11-88.96-18.33-179.61-14.66-269.36-24.5-28.08-49.8-55.54-75.53-82.45-50.69-53.04-108.71-104.55-157.09-158.92-11.16-12.55-38-41.79-36.56-58.45,1.31-15.17,16.34-30,32.08-27.23,12.18,2.14,28.48,1.62,42.25,1.01,4.57-.2,9.12-3.68,16.26-3.53,22.55.47,31.97,25.72,45.05,41.1,53.67,63.09,122.47,117.92,176.93,181.07,14.34,9.7,14.73,2.75,26.03,1.84,8.02-.65,13.43,4.14,19.95,4.17,10.48.05,12.57-6.15,25.82.2,31.55,15.1.73,54.6,8.25,79.73,79.11,90.79,160.58,180.7,232.6,277.4,67.06,90.05,166.13,245.43,37.04,332.31-20.41,13.73-44.19,20-66.63,29.33.04,3.04,28.61,15.11,33.99,17.97,55.22,29.37,107.81,63.15,158.95,99.06l3.01-1.02c-11.72-15.85-14.53-38.81-17.76-58.24-16.92-102.14-29.93-199.53-52.82-301.18-17.13-76.07-41.5-196.36-83.76-260.24-4.16-6.29-11.61-10.22-14.12-17.88-4.3-13.13-2.01-25.38,9.45-33.47,16.48-11.64,19.64-1.76,32.05-1.89,5.56-.06,9.3-4.57,15.92-4.26,5.27.24,9,4.31,14.03,4.31,11.59,0,14.09-10.2,30.86.99,45.72,30.52,82.21,178.26,95.55,232.45,15.83,64.31,28.85,129.52,41.48,194.52l7.08,21.89c26.23-99.73,51.87-200.13,71.53-301.48,13.84-71.37,36.98-183.06,30.58-253.58-2.27-24.98-32.07-65.57-16.13-91.97,7.08-11.73,20.03-16.19,33.12-15.01,11.45,1.03,29.91,2.53,41.8,1.94,4.57-.22,8.73-3.82,14.1-3.9,18.55-.27,29.18,18.43,34.47,33.58,7.7,22.04,4.83,46.2,14.25,65.75,30.72,63.74,91.6,137.77,136.36,193.64,92.23,115.1,192.94,222.95,290.98,333.03,4.59.9,2.48-2.01,3.21-4.71,4.96-18.19,8.94-38.61,12.83-57.2,15.51-74.01,28.14-148.95,36.92-224.06-38.25,4.18-76.67,10.63-115.01,13.97-40.08,3.49-96.75,8.96-136.06,6.1-4.33-.31-28.79-3.76-28.88-7.08l283.61-61.34c7.49-4.84-7.6-57.98-9.31-68.99-5.59-35.9-15.72-103.83,40.56-96.56,21.11,2.73,24.28,4.24,46.28,2.05,58.55-5.84,48.77,94.93,50.84,131.84l196.02-44.96c28.49-3.65,72.46-31.87,98.86-28.93,11.25,1.25,27.55,4.59,38.45,5.54,2.54.22,4.84-3.22,7.74-3.55,24.12-2.76,40.21,11.39,34.49,36.49-4.02,17.66-55.91,32.18-72.54,37.46-93.18,29.57-190.57,43.24-286.98,58.02-3.24,3.4,9.3,34.22,10.95,39.94,41.1,142.33,87.14,296.74,160.26,425.74,7.97,14.06,26.76,37.01,31.61,50.38.98,2.69,1.58,4.99,1.11,7.87-.79.84-11.78-2.16-13.97-3.01-36.68-14.37-88.43-79.72-111.65-112.35-49.63-69.73-87.4-147.66-124.4-224.62-5.2-.44-3.32-.27-3.91,3.02-13.73,77.18-30.91,153.69-49.61,229.72,123.52,138.89,263.57,274.84,291.32,468.48,41.25,287.84-171.61,621.81-326.95,850.59-105.67,155.63-226.9,304.61-328.08,461.92-18.15,28.23-36.94,69.17-55.88,94.12-7.03,9.26-13.91,12.99-25.91,12.3-5.66-.33-10.53-3.84-13.6-3.68-4.5.22-9.09,3.96-16.37,3.71-6.23-.22-10.24-3.93-13.93-4-6.34-.12-10.83,5.29-21.56,3.36-39.05-7-12.39-61.11-6.45-83.51,95.62-360.45,106.8-788.41,72.96-1159.02-7.36-80.63-27.25-255.74-70.72-321.28-13.63-20.56-23.68-23.06-47.26-15.74.64-22.2,34.2-21.71,50.77-19.77,70.64,8.25,114.89,141.82,131.79,200.21,89.47,309.03,80.59,683.25,41.4,1000.55-3.57,28.88-10.66,58-11.96,87.02,5.8-3.47,9.59-10.04,13.61-15.36,67.41-89.13,134.07-184.61,196.81-277.19,145.36-214.5,334.49-509.74,317.54-778.42-8.88-140.83-107.71-282.45-202.95-381.05-2.08-2.15-3.51-4.67-7.01-3.96l-37.01,118c-16.66,43.34-32.31,87.02-50.07,129.93-10.33,24.94-32.86,86.19-46.88,105.12-7.47,10.09-21.3,12.4-32.97,10.85-3.03-.4-5.36-3.74-8.08-3.85-3.04-.11-7.15,3.75-12.03,4.09-5.55.38-10.36-2.62-15.46-1.81-5.62.89-10.21,5.91-18.55,5.84-20.11-.16-35.15-21.56-30.49-40.71,65.51-139.7,118.69-286.05,155.15-435.94-116.94-132.86-239.15-261.55-351.58-398.58-20.72-25.25-40.44-54.02-61.47-78.41-1.23-1.42.08-3.77-4.57-2.55-.86,9.93-3.86,19.5-5.77,29.25-33.65,171.18-66.25,359.29-129.67,522.33-8.08,20.78-25.86,68.08-46.56,77.44-14.2,6.42-18.11-.4-29.4-.36-12.48.05-31.02,2.78-43.81,3.18-5.11.16-11.1-3.19-16.81-1.81,18.37,18.43,40.25,33.63,58.98,52,80.35,78.76,165.18,226.03,137.66,341.63-8.99,37.78-34.01,81.43-74.64,90.34.17-13.01,8.39-24.48,11.43-37.54,21.35-91.49-48.51-200.9-103.5-269.39-70.67-88.02-148.08-149.65-245.33-206.67-18.86-11.06-56.42-34.58-75.68-40.34-6.64-1.99.93,14.53,1.56,16.45,46.69,141.58,134.68,339.4,224.67,457.33,27.34,35.83,64.92,65.69,89.84,98.16,1.54,2.01,3.88,2.54,2.98,6-22.31,1.94-44.24-9.21-63.34-19.64-66.9-36.57-130.37-105.7-175.44-166.56-28.28-38.2-55.28-79.61-77.25-121.77-2.87-.64-3.24.27-4.88,2.07-5.89,6.43-10.39,20.94-15.41,28.59-73.54,112.11-242.88,114.33-362.65,107.3-174.67-10.25-365.53-111.97-482.05-239.95-200.22-219.93-297.52-645.56-100.91-894.97,6.47-8.21,48.23-54.61,57.94-47.04-10.19,26.82-25.81,51.37-36.97,78.01-102.96,245.71-24.1,533.71,120.53,745.41,101.31,148.3,254.81,255.34,432.44,290.54-69.44-59.78-128.21-131.45-179.26-207.72-182.5-272.65-264.52-562.51-296.76-887.24-10.39-104.61-17.7-211.81-.01-315.95-47.98-84.99-104.42-172.69-133.41-266.63-7.73-25.04-21.47-78.77-13.99-102.87,4.85-15.61,16.49-21.03,32.26-19.41,4.11.42,8,3.5,11.85,3.29,4.76-.26,8.86-4,16.25-3.54,5.19.32,9.9,3.85,14.06,3.85,4.72,0,9.43-4.04,15.93-3.85,13.36.38,25.61,12.53,26.67,25.67.41,5.13-2.06,9.06-1.69,13.33,7.94,89.57,90.65,248.61,145.4,319.77ZM1726.3,2549.03c84.75-116.28-17.48-299.18-81.61-403.89-136.36-222.66-310.33-432.68-460.45-647.55-24.03-34.39-51.42-84.17-77.5-114.5-1.79-2.08-1.98-4.19-5.68-3.3.97,2.34,1.95,4.25,2.04,6.94,8.64,247.69,58.11,492.91,149.02,722.98,71.53,181.02,156.63,372.51,291.38,514.68,10.07,3.91,55.16-4.24,67.93-7.25,40.65-9.57,89.96-33.94,114.87-68.11ZM1738.66,1740.23l-5.6-.46c12.14,147.94,39.25,294.97,84.96,436.03,13.18,2.04,37.38,13.84,49.54,11.54,24.33-4.6,56.11-28.47,67.81-50.26,38.94-72.51-13.24-158.72-54.69-217.94-43.46-62.1-95.49-119.15-142.02-178.9Z"/>
  <path class="cls-1" d="M1785.06,1359.75c-16.89-17.2,15.07-44.2,29.39-53.59,80.44-52.78,297.56-46.63,374.48,12.75,60.64,46.81,61.63,125.63-8.08,163.65-65.05,35.47-217.3,22.68-289.43,5.87-49.97-11.65-146.32-46.73-176.37-89.63-15.25-21.77,1.34-46.2,26.91-42.91,3.57.46,6.51,3.58,9.76,3.42,2.73-.14,5.88-2.74,8.82-3.06,10.01-1.1,15.28.56,24.53,3.52ZM1910.66,1316.36c-36.62,3.42-76.42,17.23-107.59,36.43-.91,3.84,10.33,7.27,13.81,10.16,6.14,5.1,12.76,14.07,20.31,19.69,46.88,34.96,174.37,76.37,230.66,62.9,41.24-9.87,73.28-44.68,32.17-79.74-37.61-32.08-140.75-53.98-189.36-49.45Z"/>
  <path class="cls-1" d="M1315.75,2895.07c-11.92-10.91-12.13-31.88-2.64-44.24,21.43-27.88,94.89-67.06,127.9-84.1,108.85-56.18,206.82-85.13,331.12-77.04,22.52,1.47,68.83,8.78,74.07,36,5.67,29.43-28.39,10.52-42.3,8.24-29.6-4.85-67.68,8.58-96.42,17.27-86.45,26.13-179.89,64.43-254.69,115.31-15.9,10.82-36.17,33.51-54.77,33.4-12.91-.08-28.96-.39-41.97.27-15.08.76-25.53,8.41-40.3-5.11Z"/>
  <path class="cls-1" d="M726.58,2209.28l-4.8,1.98-15.55-11.67c-33.8-76.14-78.15-152.22-108.54-229.46-9.27-23.57-15.11-48.51-23.68-72.32-2.64-7.32-9.66-15.98-10.81-23.17-3.42-21.26,11.03-38.33,32.92-37.04,6.14.36,10.1,3.79,13.86,3.93,4.72.17,10.5-3.96,15.94-3.65,3.89.22,7.56,3.35,10.5,3.45,2.78.09,7.62-4.24,12.1-5.1,26.28-5.04,37.11,17.18,45.51,37.57,24.95,60.55,27.62,126.52,33.05,190.95,3.37,39.96,9.83,81.51,6.06,122.1-.74,7.96-3.57,15.18-6.57,22.43Z"/>
  <path class="cls-1" d="M527.89,1940.94c27.93,31.89,39.57,70.79,52.59,110.4,7.63,23.2,26.03,73.11,24.63,95.37-1.62,25.78-21.07,7.93-31.09-.85-34.91-30.6-77.1-74.68-109.05-109.05-21.06-22.66-38.98-47.61-57.39-72.54-5.33-26.84,7.54-40.49,34.6-38.6,19.28,1.35,28.67.46,48.35-3.42,18.53-3.66,26.79,6.62,37.37,18.7Z"/>
  <path class="cls-1" d="M1814.45,2795.19c-29.55,17.31-55.45,40.39-84.34,58.63-15.79,9.97-33,17.42-48.88,27.12-15.62,9.54-24.65,24.45-45.08,20.73-3.55-.65-5.69-4.18-9.91-3.96-4.66.24-8.08,4.76-16.15,4.18-6.01-.44-10.56-5.23-14.01-5.33-2.78-.08-6.65,2.71-10.19,3.06-28.66,2.78-41.8-27.79-21.91-47.94,38.13-38.64,152.29-64.5,206.1-69.89,6.74-.67,31.61-2.37,37.08-1.21,8.09,1.72,12.95,6.9,7.3,14.62Z"/>
</svg>