<?xml version="1.0" encoding="UTF-8"?>
<svg id="Layer_1" xmlns="http://www.w3.org/2000/svg" version="1.1" viewBox="0 0 1080 1080">
  <!-- Generator: Adobe Illustrator 29.2.1, SVG Export Plug-In . SVG Version: 2.1.0 Build 116)  -->
  <path d="M497.5,520.7c3.4.6,2-2.7,1.8-4.9-1.7-17.3-5.2-34.3-4.4-51.9-4.7-12.6-45.8-43.2-46.6-52.5-.1-1.3.9-5,2.6-5.4,24.1-5.8,34,25.5,50.9,36.5,5,3.3,10.9,2.5,16.4,3.2-.2,6-.5,9.9,2,15.7,4.1,9.7,32.1,36.4,40.6,49,10.4,15.5,24.9,38.5,6.5,54-4.3,3.6-10.9,4-13.5,8.3l30.2,16.7c-1.9-38.4-11.1-77.6-26-113.3,1.6-5.5,20.4-5.4,22.5,2.2l21.1,71.5c5.8-29,18.3-63.1,16.7-92.7-1-18.4-10.4-24.4,18.3-19.4,11.3,42.2,50.2,72.4,76.5,105.8,4.4.9,2.8-1.8,3.7-4.6,3.9-13,4-27.1,7.7-40.2l-4.2-2.4-43.6,2.3,47.8-11.6c2.4-2.8-6.2-23.8,0-28.1,20.6-5,24.9,2.5,23.1,22,2.3,2.5,49.3-13.8,59.5-12.6,20.5,2.5-1.9,12.8-10,15.2-14.3,4.4-30.4,6.9-45.3,7.8,5.6,32.3,18.9,62.6,33.3,91.6-22.6-9.8-30-37.3-42.7-56.2l-8.9,38.3c22.4,25.3,48.9,51.9,51.7,87.7,5.7,73-74.6,163.5-113.9,221.7-2.5,3.7-10.5,20.1-11.5,20.8-2.4,1.5-19.1,1.4-20.4-3-.6-2.2,6.5-24.2,7.6-29.5,11-56.6,14.4-123.3,8.9-180.6-1-10.8-7.6-58-15.2-63-2-1.4-6.3,1.2-5.7-2.6,25.7-5.7,33.3,37,36.8,55.8,10.5,55.6,7.7,111.2.7,167l48.8-68.9c37-59.8,70.7-127.7,5.4-183.2-3.2,11.1-16,55.1-22.7,61.2-2.8,2.6-18,2.3-20.2-.6l25.8-79.9-72.5-82.7c-1.7,15-21.1,103-29.6,107.9-3.3,1.9-11.9-.4-16.2.5,21.4,20.5,50.9,59.2,21.8,85.4-5.4.4-2.1-.8-1.6-3.7,5-24.8-13.1-49.7-30.7-66.1-6.1-5.7-31.6-24-38.6-26-2.8-.8-3.9.3-3,3,6,19.8,19.7,42.3,28.1,61.5l26.1,35.4c-25.5-8.1-41.2-33-55.2-54.2-17.6,36-78.3,26.6-108.7,12.8-62.5-28.3-101.3-118.6-64.9-180.1,1.5-2.6,12.7-19.4,16.2-16-36.6,59.6-1,153.6,58.6,184.1,2.4,1.2,28.6,13.7,28.9,8.6-34.3-30.2-58.8-79.3-70.2-123.5-6-23.4-11.9-54.5-13.2-78.5-.5-9.7,3-38.4,1.8-43.3s-10.5-16.6-13.2-22.4c-4.5-9.5-22.2-42.7-6.1-45.8,18.2-3.5,14.5,13.1,19.4,26.4,5.4,14.6,17.5,33.5,25.8,47.1,25.8,42.5,58.3,80.5,85,122.3h0ZM513.4,632.5c24.6-24.4-16-80-30.9-102-23.5-34.6-50.2-67.5-74.6-101.4.5,56.3,17.4,114.4,42.9,164.3,9,17.6,19.5,35.5,34,49.1,8.9-.4,22.1-3.6,28.6-10h0ZM531.2,564c35.2,6.7,22.8-33.9,7.6-50.3l-20.5-24.3c-.5,25.6,8.1,49.9,12.9,74.6Z"/>
  <path d="M524.1,420.2c.8-.5,2.7-5.7,5.6-7.9,19.8-15.8,94.8-4.4,72,26.2-12.4,16.6-80.4,8.7-89.6-14.6,2.6-4.9,9-1.9,12-3.6h0ZM530.8,422.7c8.1,7.3,53.5,23.8,53.4,5.2,0-13.6-43.1-17.6-52.1-9.5l-1.3,4.3h0Z"/>
  <path d="M537,664.4c-17.5-5.4-40.3,5.5-56.3,13.5-12.7,6.3-20,17.2-36.1,13.7-8.7-8.7,5.1-15.1,11.8-19.2,19.6-12,47.9-21.8,71-18.3,5.6.8,10.9,3.6,9.5,10.3h0Z"/>
  <path d="M341.2,570.7c-4.9,1-3.4-.6-4.7-2.7-4.9-7.7-26-53.9-24.7-60.6,4.4-4.1,15.5-5.1,20.2-1.5,3,2.3,9.2,24.6,9.2,28.3v36.5h0Z"/>
  <path d="M305.2,521.2c4.9,4.2,13.7,28.1,14.3,34.8.3,3.2,1.6,3.7-2.2,6.3-4.9-5.8-39.1-34.9-32.3-41.6,5.8,1.4,16-3.1,20.2.5h0Z"/>
  <path d="M532.9,670.7c-10.6,8.8-26.2,22.6-40.7,21-15.8-1.8-3.1-12.3,5.3-15.8,10.3-4.2,24.3-5.7,35.4-5.2h0Z"/>
</svg>