<svg xmlns="http://www.w3.org/2000/svg" xmlns:xlink="http://www.w3.org/1999/xlink" width="500" zoomAndPan="magnify" viewBox="0 0 375 374.999991" height="500" preserveAspectRatio="xMidYMid meet" version="1.0"><defs><clipPath id="8a8ade033b"><path d="M 187.5 0 C 83.945312 0 0 83.945312 0 187.5 C 0 291.054688 83.945312 375 187.5 375 C 291.054688 375 375 291.054688 375 187.5 C 375 83.945312 291.054688 0 187.5 0 Z M 187.5 0 " clip-rule="nonzero"/></clipPath><clipPath id="e016168cb1"><path d="M 108 105.289062 L 274.910156 105.289062 L 274.910156 269 L 108 269 Z M 108 105.289062 " clip-rule="nonzero"/></clipPath></defs><g clip-path="url(#8a8ade033b)"><rect x="-37.5" width="450" fill="#ff3131" y="-37.499999" height="449.999989" fill-opacity="1"/></g><g clip-path="url(#e016168cb1)"><path fill="#f8f8f8" d="M 126.8125 107.082031 C 126.8125 107.082031 100.128906 136.890625 111.988281 162.59375 C 123.050781 186.566406 156.484375 242.210938 212.617188 264.980469 C 220.8125 268.308594 229.800781 269.617188 238.503906 268.035156 C 245.019531 266.847656 263.019531 262.925781 268.933594 255.867188 C 269.558594 255.121094 270.722656 254.253906 271.898438 252.457031 C 272.929688 250.871094 274.828125 248.789062 274.113281 245.234375 C 273.152344 240.453125 252.9375 221.800781 245.125 214.742188 C 242.824219 212.667969 239.871094 211.410156 236.789062 211.410156 C 234.773438 211.410156 232.945312 211.871094 232.199219 213.199219 C 226.746094 222.894531 220.996094 229.308594 216.121094 231.863281 C 209.738281 235.210938 170 207.601562 153.960938 175.21875 C 151.480469 170.214844 152.542969 164.175781 156.578125 160.316406 C 161.613281 155.503906 169.746094 147.363281 169.980469 145.707031 C 170.378906 142.9375 169.316406 141.222656 167.742188 137.667969 C 166.496094 134.867188 148.34375 117.074219 140.671875 109.636719 C 137.894531 106.941406 134.164062 105.347656 130.292969 105.480469 C 129.015625 105.53125 127.320312 106.472656 126.8125 107.082031 Z M 126.8125 107.082031 " fill-opacity="1" fill-rule="nonzero"/></g></svg>